<?xml version="1.0" encoding="utf-8"?>
<!-- Generator: Adobe Illustrator 29.1.0, SVG Export Plug-In . SVG Version: 9.03 Build 55587)  -->
<!DOCTYPE svg PUBLIC "-//W3C//DTD SVG 1.1//EN" "http://www.w3.org/Graphics/SVG/1.1/DTD/svg11.dtd" [
	<!ENTITY ns_extend "http://ns.adobe.com/Extensibility/1.0/">
	<!ENTITY ns_ai "http://ns.adobe.com/AdobeIllustrator/10.0/">
	<!ENTITY ns_graphs "http://ns.adobe.com/Graphs/1.0/">
	<!ENTITY ns_vars "http://ns.adobe.com/Variables/1.0/">
	<!ENTITY ns_imrep "http://ns.adobe.com/ImageReplacement/1.0/">
	<!ENTITY ns_sfw "http://ns.adobe.com/SaveForWeb/1.0/">
	<!ENTITY ns_custom "http://ns.adobe.com/GenericCustomNamespace/1.0/">
	<!ENTITY ns_adobe_xpath "http://ns.adobe.com/XPath/1.0/">
]>
<svg version="1.1" id="레이어_1" xmlns:x="&ns_extend;" xmlns:i="&ns_ai;" xmlns:graph="&ns_graphs;"
	 xmlns="http://www.w3.org/2000/svg" xmlns:xlink="http://www.w3.org/1999/xlink" x="0px" y="0px" viewBox="0 0 260 260"
	 style="enable-background:new 0 0 260 260;" xml:space="preserve">
<style type="text/css">
	.st0{fill:none;}
	.st1{fill:url(#SVGID_1_);stroke:#000000;stroke-width:6.0428;stroke-linejoin:round;stroke-miterlimit:10;}
	.st2{fill:#1DB6B3;}
</style>
<metadata>
	<sfw  xmlns="&ns_sfw;">
		<slices></slices>
		<sliceSourceBounds  bottomLeftOrigin="true" height="253" width="253" x="4" y="3.5"></sliceSourceBounds>
	</sfw>
</metadata>
<pattern  y="260" width="292.8" height="390.2" patternUnits="userSpaceOnUse" id="새_패턴_견본_1" viewBox="1 -391.2 292.8 390.2" style="overflow:visible;">
	<g>
		<rect x="1" y="-391.2" class="st0" width="292.8" height="390.2"/>
		
			<image style="overflow:visible;" width="1000" height="1333" xlink:href="7281F801.jpg"  transform="matrix(0.2928 0 0 0.2928 1 -391.2429)">
		</image>
	</g>
</pattern>
<g>
	<pattern  id="SVGID_1_" xlink:href="#⑦꽩_寃щ낯_1" patternTransform="matrix(1 0 0 1 -260.2447 -123.7571)">
	</pattern>
	<circle class="st1" cx="130.5" cy="130" r="123.5"/>
	<g>
		<g>
			<path class="st2" d="M166.3,121.7l58.6-68.4c2.2,2.8,6.3,9.2,5.3,17.5c-1,8.3-36.6,35.9-59.4,51.7L166.3,121.7z"/>
			<g>
				<path d="M224.8,56.3c2,3,4.3,8,3.6,14.2c-0.1,1-2.1,7.2-29.5,28.8c-12.3,9.7-24.6,18.4-28.4,21.1l-0.5-0.1L224.8,56.3
					 M224.9,50.4l-62.2,72.7l8.7,1.4c0,0,59.3-41.1,60.8-53.5C233.6,58.7,224.9,50.4,224.9,50.4L224.9,50.4z"/>
			</g>
		</g>
		<g>
			<path class="st2" d="M128.3,127c-13.4-6.6-47.2-38.6-47.6-38.9c-0.4-0.3-0.8-0.5-1.3-0.5c-0.3,0-0.6,0.1-0.9,0.3
				c-0.7,0.4-1.1,1.3-0.9,2.1l1.6,6.8c-9.7-8.3-32.8-28.6-37.1-36.9c-4.1-7.7,2.7-18.3,5.7-22.3l83.5,86.8L128.3,127z"/>
			<g>
				<path d="M48,40.5l80.5,83.8l-0.5,0.5c-11.5-6.3-36.7-29.2-46-38c-0.7-0.7-1.7-1-2.6-1c-0.6,0-1.3,0.2-1.9,0.5
					c-1.4,0.8-2.2,2.5-1.8,4.1l0.3,1.1C64,81,47.2,65.5,43.7,58.9C40.8,53.4,44.7,45.4,48,40.5 M47.6,34.7c0,0-13,15.1-7.2,26
					s42,41.1,42,41.1l-2.9-12.3c0,0,36.2,34.3,49.2,39.8l5.3-4.8L47.6,34.7L47.6,34.7z"/>
			</g>
		</g>
		<g>
			<path class="st2" d="M146,152c-1.8,0-8.5-2.6-13-7.8c-3-3.4-4.3-7-3.9-10.7c0.8-7.1,9.9-8.2,15.2-8.2c2.5,0,4.3,0.2,4.4,0.2
				c0.1,0,0.2,0,0.3,0c0.1,0,0.3,0,0.4-0.1c3.5-0.8,7-1.3,10.2-1.3c2.5,0,10.7,0.4,10.9,5C170.6,134.9,149.6,151.8,146,152z"/>
			<g>
				<path d="M159.6,126.2c5.2,0,8.9,1.3,9,3.1c-0.1,0.8-2,4.8-9.8,11.7c-6.4,5.6-11.4,8.7-12.8,9.1c-1.6-0.2-7.5-2.5-11.6-7.3
					c-2.6-2.9-3.7-6-3.3-9.1c0.2-1.6,0.9-3.6,4.3-5.1c2.3-0.9,5.4-1.4,9-1.4c2.4,0,4.1,0.2,4.1,0.2c0.2,0,0.3,0,0.5,0
					c0.3,0,0.6,0,0.9-0.1C153.2,126.6,156.5,126.2,159.6,126.2 M159.6,122.4c-3.3,0-7,0.5-10.6,1.3c0,0-1.9-0.3-4.6-0.3
					c-6.1,0-16.1,1.3-17.1,9.9c-1.4,12.3,14.5,20.6,18.8,20.6c4.3,0,26.5-17.8,26.3-24.7C172.1,124.6,166.7,122.4,159.6,122.4
					L159.6,122.4z"/>
			</g>
		</g>
		<g>
			<path class="st2" d="M128.4,250.5c-11.6-21.1,5.4-57.7,5.5-58.1c0.4-0.8,0.1-1.8-0.6-2.4c-0.3-0.2-0.7-0.3-1.1-0.3
				c-0.5,0-1,0.2-1.4,0.6c-8,8.4-11.7,10.9-13.2,11.6c-2-10.7,18.7-35.2,28.5-45.5c4.3,3.4,18.6,17,17.4,46.1
				c-1,24.7-8.4,35.6-12.4,39.6l-1.2-16.4c-0.1-0.8-0.7-1.5-1.5-1.7c-0.1,0-0.2,0-0.4,0c-0.7,0-1.4,0.4-1.7,1.1
				C139.1,240.2,131.6,247.7,128.4,250.5z"/>
			<g>
				<path d="M146.4,159c1.8,1.6,4.5,4.3,7,8.3c6.1,9.5,8.9,21.3,8.4,35.1c-0.8,18.8-5.3,29.3-8.9,34.8l-0.9-11.6
					c-0.1-1.7-1.4-3.1-3-3.4c-0.2,0-0.5-0.1-0.7-0.1c-1.4,0-2.7,0.8-3.4,2.1c-6.1,12.4-12.2,19.6-15.8,23.1
					c-8.9-20.5,6.5-53.8,6.7-54.1c0.8-1.7,0.3-3.7-1.3-4.7c-0.7-0.4-1.4-0.7-2.1-0.7c-1,0-2,0.4-2.7,1.2c-4.7,4.9-7.8,7.7-9.8,9.3
					c0.8-3.9,3.6-10.7,12.2-22.1C137.4,168.9,143.3,162.4,146.4,159 M146,153.9c0,0-35.5,36.3-29.7,50c0,0,0.1,0.2,0.5,0.2
					c1.2,0,4.8-1.5,15.4-12.5c0,0-18.8,39.8-4.3,61.7c0,0,10.1-6.9,20.3-27.4l1.5,20.1c0,0,14.4-7.7,15.8-43.4
					C167,166.9,146,153.9,146,153.9L146,153.9z"/>
			</g>
		</g>
	</g>
</g>
</svg>
